<svg width="40" height="40" viewBox="0 0 40 40" fill="none" xmlns="http://www.w3.org/2000/svg">
<rect x="0.75" y="0.75" width="38.5" height="38.5" rx="19.25" stroke="#0000FF" stroke-width="1.5"/>
<rect x="2.75" y="2.75" width="34.5" height="34.5" rx="17.25" fill="#0000FF"/>
<mask id="mask0_52_801" style="mask-type:alpha" maskUnits="userSpaceOnUse" x="10" y="10" width="20" height="20">
<rect x="10" y="10" width="20" height="20" fill="#D9D9D9"/>
</mask>
<g mask="url(#mask0_52_801)">
<path d="M12.4997 22.5C12.0413 22.5 11.649 22.3368 11.3226 22.0104C10.9962 21.684 10.833 21.2917 10.833 20.8333C10.833 20.375 10.9962 19.9826 11.3226 19.6563C11.649 19.3299 12.0413 19.1667 12.4997 19.1667C12.958 19.1667 13.3504 19.3299 13.6768 19.6563C14.0031 19.9826 14.1663 20.375 14.1663 20.8333C14.1663 21.2917 14.0031 21.684 13.6768 22.0104C13.3504 22.3368 12.958 22.5 12.4997 22.5ZM17.4163 18.4167C17.083 18.5139 16.767 18.4757 16.4684 18.3021C16.1698 18.1285 15.9719 17.875 15.8747 17.5417C15.7775 17.2083 15.8156 16.8889 15.9893 16.5833C16.1629 16.2778 16.4163 16.0833 16.7497 16L19.7288 15.2083C19.9511 15.1389 20.1594 15.1667 20.3538 15.2917C20.5483 15.4167 20.6802 15.5903 20.7497 15.8125L20.9788 16.6042C21.0483 16.8264 21.0205 17.0347 20.8955 17.2292C20.7705 17.4236 20.5969 17.5556 20.3747 17.625L17.4163 18.4167ZM12.6663 28.6667C12.4719 28.5278 12.3608 28.3472 12.333 28.125C12.3052 27.9028 12.3608 27.6945 12.4997 27.5L14.3747 25L15.0205 21.2917C15.0622 20.9583 15.1941 20.6632 15.4163 20.4063C15.6386 20.1493 15.9233 19.9792 16.2705 19.8958L24.1663 17.5L25.833 14.1667L27.9163 12.0833C28.0275 11.9722 28.1629 11.9132 28.3226 11.9063C28.4823 11.8993 28.6316 11.9653 28.7705 12.1042C28.8816 12.2153 28.9441 12.3507 28.958 12.5104C28.9719 12.6701 28.9233 12.8056 28.8122 12.9167L27.083 14.9167L25.9997 18.2292C25.9441 18.3958 25.8643 18.5486 25.7601 18.6875C25.6559 18.8264 25.5275 18.9514 25.3747 19.0625L21.8747 21.5208C21.8052 21.5764 21.7323 21.6215 21.6559 21.6563C21.5795 21.691 21.4997 21.7222 21.4163 21.75L16.7913 23.2083L15.833 25.8333L13.833 28.5C13.6941 28.6945 13.5136 28.8056 13.2913 28.8333C13.0691 28.8611 12.8608 28.8056 12.6663 28.6667Z" fill="white"/>
</g>
<rect x="2.75" y="2.75" width="34.5" height="34.5" rx="17.25" stroke="white" stroke-width="1.5"/>
</svg>
