<svg width="14" height="18" viewBox="0 0 14 18" fill="none" xmlns="http://www.w3.org/2000/svg">
<path d="M6.99967 17.3333C5.23579 17.3333 3.6837 16.7187 2.34342 15.4895C1.00315 14.2604 0.333008 12.5972 0.333008 10.5C0.333008 9.18051 0.833008 7.74996 1.83301 6.20829C2.83301 4.66663 4.3469 2.99996 6.37467 1.20829C6.45801 1.13885 6.55523 1.08329 6.66634 1.04163C6.77745 0.999959 6.88856 0.979126 6.99967 0.979126C7.11079 0.979126 7.2219 0.999959 7.33301 1.04163C7.44412 1.08329 7.54134 1.13885 7.62467 1.20829C9.65245 2.99996 11.1663 4.66663 12.1663 6.20829C13.1663 7.74996 13.6663 9.18051 13.6663 10.5C13.6663 12.5972 12.9962 14.2604 11.6559 15.4895C10.3156 16.7187 8.76356 17.3333 6.99967 17.3333ZM6.99967 15.6666C8.40245 15.6666 9.58648 15.1875 10.5518 14.2291C11.517 13.2708 11.9997 12.0277 11.9997 10.5C11.9997 9.51385 11.59 8.38538 10.7705 7.11454C9.95106 5.84371 8.69412 4.43051 6.99967 2.87496C5.30523 4.43051 4.04829 5.84371 3.22884 7.11454C2.4094 8.38538 1.99967 9.51385 1.99967 10.5C1.99967 12.0277 2.48231 13.2708 3.44759 14.2291C4.41287 15.1875 5.5969 15.6666 6.99967 15.6666ZM7.22884 14.8333C7.39551 14.8194 7.53787 14.7534 7.65592 14.6354C7.77398 14.5173 7.83301 14.375 7.83301 14.2083C7.83301 14.0138 7.77051 13.8576 7.64551 13.7395C7.52051 13.6215 7.36079 13.5694 7.16634 13.5833C6.5969 13.625 5.99273 13.4687 5.35384 13.1145C4.71495 12.7604 4.31217 12.118 4.14551 11.1875C4.11773 11.0347 4.04481 10.9097 3.92676 10.8125C3.8087 10.7152 3.67329 10.6666 3.52051 10.6666C3.32606 10.6666 3.16634 10.7395 3.04134 10.8854C2.91634 11.0312 2.87467 11.2013 2.91634 11.3958C3.15245 12.6597 3.70801 13.5625 4.58301 14.1041C5.45801 14.6458 6.33995 14.8888 7.22884 14.8333Z" fill="#0000FF"/>
</svg>
